PathFileType	4	(X/Y/Z)	D:\TRACE\spotREDO_2-26-24\spot_Both_Motion_3_7-v60.trc
DataRate	CameraRate	NumFrames	NumMarkers	Units	OrigDataRate	OrigDataStartFrame	OrigNumFrames
100.00	100.00	      31	9	mm	100.00	1751	      7000
Frame#	Time	front left toe			Front right toe			aft left toe			aft right toe			Arm			FL body			FR body			AL Body			AR Body			
		X1	Y1	Z1	X2	Y2	Z2	X3	Y3	Z3	X4	Y4	Z4	X5	Y5	Z5	X6	Y6	Z6	X7	Y7	Z7	X8	Y8	Z8	X9	Y9	Z9	

1751	17.500	-231.61696	18.38804	-450.42740	176.30284	20.36636	-458.68976	-239.79556	15.07123	129.69652	171.95389	27.98814	140.37285	17.50115	697.37750	-760.87787	-136.38412	571.89087	-529.20233	18.97836	575.57281	-523.79620	-175.45444	563.55298	353.49631	-28.72924	556.64203	361.80411	
1752	17.510	-231.43529	18.34132	-450.67062	176.45349	20.09971	-458.57916	-239.81403	14.82980	129.58160	171.99423	27.98215	140.40260	16.32585	697.85406	-760.57574	-135.52216	572.09576	-529.88702	19.87795	575.41187	-524.13013	-175.15950	563.35406	353.17007	-28.22473	556.51660	361.54706	
1753	17.520	-231.41983	18.29434	-450.70969	176.69269	20.06146	-458.57016	-239.78430	14.68411	129.48953	172.04852	28.14164	140.64821	15.53085	698.17780	-760.37274	-134.60936	572.01068	-530.25586	20.70683	575.43445	-524.43481	-174.68051	562.99811	352.82016	-27.82122	556.32172	360.96854	
1754	17.530	-231.42639	18.27978	-450.72025	176.45686	20.02087	-458.75650	-239.72354	14.75377	129.45279	172.00134	27.81050	140.26074	14.39163	698.58984	-760.17816	-134.20354	572.16138	-530.46649	21.08586	575.62677	-524.77136	-173.85915	562.82709	352.59796	-26.96130	555.92419	360.72327	
1755	17.540	-231.42743	18.25869	-450.72992	176.36911	19.98550	-458.91022	-239.67599	14.97760	129.44801	172.12308	27.77098	140.23666	14.03479	698.53546	-759.85669	-134.10326	572.40332	-530.63879	21.30181	575.71069	-524.96777	-172.67165	562.77332	352.41846	-25.66287	555.76282	360.61066	
1756	17.550	-231.45935	18.18138	-450.67181	176.28671	19.85891	-459.16641	-239.62975	15.36567	129.46738	172.26170	27.78557	140.23450	14.16424	698.37476	-759.57629	-134.05653	572.48187	-530.72833	21.32499	575.67029	-525.20496	-171.35754	562.78998	352.48343	-24.35806	555.83649	360.47638	
1757	17.560	-231.64796	17.99577	-450.51172	176.22327	19.82463	-459.25488	-239.61168	15.52804	129.53709	172.40024	27.76101	140.24080	14.54397	698.09534	-759.25220	-134.02600	572.40625	-530.71838	21.39599	575.49414	-525.48328	-170.10719	562.87830	352.51248	-23.15789	555.94019	360.33218	
1758	17.570	-231.68613	17.75371	-450.48941	176.24774	19.80788	-459.30240	-239.49161	15.61289	129.58156	172.63661	27.80742	140.28888	15.01687	697.57153	-759.05750	-133.95515	572.06580	-530.60999	21.57068	575.18329	-525.68292	-168.66318	562.84747	352.65598	-22.03649	555.56232	360.05060	
1759	17.580	-231.70544	17.54191	-450.45721	176.18980	19.83331	-459.34131	-239.42001	15.63033	129.58537	172.85129	27.77977	140.23738	15.50613	697.20154	-758.96899	-133.73961	571.74915	-530.44904	21.81405	575.01971	-525.81647	-167.74918	562.88611	352.73163	-20.50898	555.45062	359.91907	
1760	17.590	-231.73352	17.45295	-450.41342	176.16063	19.78973	-459.39401	-239.27864	15.74175	129.72392	173.00529	27.81619	140.21547	16.33026	696.91443	-758.76636	-133.21548	571.55334	-530.25189	22.09017	574.78204	-525.83246	-166.40334	562.95410	352.86194	-19.27301	555.33167	360.00366	
1761	17.600	-231.70563	17.48685	-450.39389	176.24069	19.67310	-459.38760	-239.23499	15.91686	129.74744	173.02066	27.76717	140.32578	16.77023	696.74414	-758.75372	-132.67729	571.60284	-530.15698	22.57006	574.55798	-525.80536	-165.66656	562.96539	353.00021	-18.50870	555.45251	360.22333	
1762	17.610	-231.73593	17.57158	-450.42365	176.27728	19.47549	-459.44321	-239.31769	15.99794	129.69640	172.66377	27.68308	140.20493	17.05800	696.61188	-758.80530	-132.00636	571.74402	-530.07703	23.28005	574.39624	-525.65430	-164.91655	562.81580	353.18610	-17.79698	555.26459	360.40573	
1763	17.620	-231.70088	17.56148	-450.51550	176.35829	19.39502	-459.32620	-239.39131	16.00169	129.66992	172.64146	27.72156	140.26945	17.28030	696.60474	-758.86938	-130.83434	571.77332	-530.08203	24.56958	574.10974	-525.29517	-164.29944	562.60577	353.38333	-17.04195	554.82385	360.49509	
1764	17.630	-231.73877	17.55564	-450.63470	176.50534	19.20844	-459.35678	-239.51036	15.78478	129.58495	172.42534	27.67135	140.28885	17.34791	696.62750	-759.03497	-129.64754	571.43781	-529.67419	25.46366	573.96393	-525.13708	-163.73257	562.33136	353.58960	-16.68026	554.50287	360.78369	
1765	17.640	-231.62793	17.60448	-450.73923	176.46945	18.72280	-459.27435	-239.61909	15.70569	129.55516	172.27347	27.62804	140.26765	17.24276	696.69702	-759.20166	-128.71527	571.39880	-529.55267	26.82695	573.65497	-524.57251	-163.40369	562.12543	353.74689	-16.51861	554.32227	361.08301	
1766	17.650	-231.52826	17.70770	-450.76822	176.49399	18.41621	-459.14322	-239.69032	15.73909	129.53612	172.30115	27.63974	140.27644	16.74396	696.80127	-759.39716	-127.13737	571.13336	-529.27350	28.04969	573.70221	-524.19977	-162.86681	561.94568	353.97583	-15.90450	554.09357	361.63815	
1767	17.660	-231.46643	17.92951	-450.95758	176.63242	17.97535	-459.25058	-239.76181	15.98339	129.52925	172.19508	27.57161	140.27339	16.49862	696.87177	-759.64502	-125.85942	570.91400	-528.51733	29.16782	573.57507	-523.78278	-162.32211	561.74384	354.18939	-15.36393	553.84247	361.92053	
1768	17.670	-231.48540	17.97554	-450.96600	176.61890	17.82930	-459.17960	-239.84584	16.16573	129.52751	172.12375	27.52911	140.26892	16.10673	696.85156	-759.75049	-124.92660	571.37262	-528.59979	30.24393	573.40997	-523.34387	-161.34212	561.52509	354.58746	-14.31405	553.46796	362.38412	
1769	17.680	-231.51469	17.79851	-450.95569	176.48541	17.95730	-459.02167	-239.84171	16.11257	129.50151	172.11174	27.50214	140.30354	15.35927	696.76343	-759.77649	-123.97370	571.14490	-527.86108	31.47396	573.20917	-522.78528	-160.66414	561.38599	354.97910	-13.53867	553.27148	362.91635	
1770	17.690	-231.54984	17.55660	-450.94742	176.49239	17.84641	-458.90286	-239.87921	16.17674	129.46674	172.12119	27.43856	140.38722	15.36730	696.64777	-759.77106	-122.89352	570.96423	-527.31403	32.53651	573.12579	-522.40143	-159.81030	561.26373	355.50961	-12.80743	553.18958	363.27335	
1771	17.700	-231.59927	17.53506	-450.93915	176.50766	17.81612	-458.92047	-239.83286	16.32497	129.47945	172.24467	27.44491	140.44598	15.03598	696.52032	-759.72980	-121.76842	570.82129	-527.03247	33.37843	573.11414	-522.05609	-158.53453	561.05359	356.10822	-11.63231	553.02460	363.74002	
1772	17.710	-231.63240	17.58031	-450.90955	176.41534	17.81392	-458.82742	-239.79288	16.60677	129.44469	172.33348	27.41262	140.53175	14.87741	696.47723	-759.66589	-120.92247	571.01727	-526.56860	34.49369	573.20465	-521.43347	-157.54878	560.95074	356.61755	-10.33114	552.73474	364.35767	
1773	17.720	-231.67267	17.53361	-450.82864	176.28647	17.65297	-458.89871	-239.87305	16.85987	129.47079	172.31409	27.38188	140.57536	14.78978	696.51965	-759.50916	-120.11498	570.68481	-525.68463	35.24368	573.22101	-520.97314	-156.03114	560.77161	357.27103	-9.41127	552.78986	364.92172	
1774	17.730	-231.78583	17.55703	-450.77982	176.17351	17.47007	-459.03864	-239.89725	16.87044	129.49883	172.41026	27.36106	140.61101	14.74637	696.48938	-759.42151	-119.01759	570.71490	-525.08264	36.48853	573.13190	-520.28046	-154.80392	560.49640	357.81406	-7.93349	552.71326	365.58139	
1775	17.740	-231.75023	17.46734	-450.70679	176.10643	17.32629	-459.07565	-239.69154	16.95980	129.37321	172.38228	27.30283	140.65883	14.77294	696.43298	-759.25757	-118.18018	570.67975	-524.77380	37.29666	573.08252	-519.62482	-153.65875	560.43878	358.51999	-6.64871	552.58319	366.04791	
1776	17.750	-231.69946	17.46747	-450.77234	176.04083	17.21313	-459.01538	-239.88448	16.99135	129.46341	172.46768	27.28041	140.75583	14.81006	696.38995	-759.06738	-116.87239	570.36438	-523.99335	38.49726	573.14850	-518.89246	-152.49939	560.22168	359.17661	-5.37628	552.32501	366.78372	
1777	17.760	-231.72456	17.45285	-450.81805	176.02397	17.07769	-458.94208	-239.91063	17.10396	129.40073	172.37238	27.28706	140.70769	14.86363	696.33655	-758.86554	-115.82287	570.47992	-523.39844	39.42658	573.12823	-518.38019	-151.17883	559.95197	359.97617	-4.15524	552.26086	367.46301	
1778	17.770	-231.95139	17.57684	-450.75119	175.82274	16.83715	-459.09360	-240.07797	17.20080	129.40703	172.42780	27.23629	140.81973	14.45137	696.40106	-758.73267	-114.49707	570.42468	-522.08344	40.73312	573.35315	-517.50122	-149.83104	559.80035	360.71317	-3.20543	552.18018	368.14191	
1779	17.780	-232.01462	17.56991	-450.74707	175.92210	16.67382	-458.87894	-240.19354	17.29224	129.42242	172.50093	27.23203	140.99750	14.78039	696.44733	-758.58405	-113.22099	570.39563	-521.76257	41.92710	573.34161	-516.65167	-148.57350	559.49426	361.45215	-1.74263	551.94519	368.91193	
1780	17.790	-231.95169	17.52035	-450.74631	176.11755	16.50961	-458.73819	-240.20705	17.26377	129.43452	172.54558	27.14547	141.10616	14.60741	696.48071	-758.52167	-111.87337	570.34448	-520.59491	43.32680	573.35986	-515.91473	-147.23070	559.27612	362.27844	-0.24400	551.71106	369.83136	
1781	17.800	-231.85138	17.38239	-450.78885	176.13860	16.41976	-458.75925	-240.25339	17.31423	129.45015	172.27654	27.08310	141.17273	13.93724	696.51349	-758.53033	-110.36889	570.68958	-520.09705	44.65991	573.45789	-515.06732	-146.28543	559.10486	363.00220	0.79729	551.68365	370.79163	
